# xmcd CD database file
#
# Track frame offsets:
#	150
#	13575
#	26700
#	36375
#	47400
#	59550
#	70500
#	83400
#	93450
#	105825
#	117975
#	130575
#	142125
#	154275
#	164925
#	174825
#	187275
#	200475
#	211500
#	225075
#	235950
#	248700
#	261150
#	273375
#
# Disc length: 3813 seconds
#
# Revision: 1
# Processed by: cddbd v1.5.1PL2 Copyright (c) Steve Scherf et al.
# Submitted via: freeDBTagger 0.8.2.1
#
DISCID=470ee318
DTITLE=Platters - A Collection [CD1]
DYEAR=2004
DGENRE=blues
TTITLE0=Earth Angel
TTITLE1=Stand By Me
TTITLE2=Crying In The Chapel
TTITLE3=Duke Of Earl
TTITLE4=Smoke Gets In Your Eyes
TTITLE5=Ebb Tide
TTITLE6=Enchanted
TTITLE7=For The First Time
TTITLE8=Glory Of Love
TTITLE9=The Great Pretender
TTITLE10=Harbor Lights
TTITLE11=Heaven On Earth
TTITLE12=Helpless
TTITLE13=He's Mine
TTITLE14=I Give You My Word
TTITLE15=Goodnight Sweetheart
TTITLE16=I'm Sorry
TTITLE17=The Magic Touch
TTITLE18=The Mystery Of You
TTITLE19=It Isn't Right
TTITLE20=It's Raining Outside
TTITLE21=Twilight Time
TTITLE22=Where
TTITLE23=My Prayer
EXTD=Downloaded
EXTT0=
EXTT1=
EXTT2=
EXTT3=
EXTT4=
EXTT5=
EXTT6=
EXTT7=
EXTT8=
EXTT9=
EXTT10=
EXTT11=
EXTT12=
EXTT13=
EXTT14=
EXTT15=
EXTT16=
EXTT17=
EXTT18=
EXTT19=
EXTT20=
EXTT21=
EXTT22=
EXTT23=
PLAYORDER=
